<svg xmlns="http://www.w3.org/2000/svg" viewBox="0 0 680 280" role="img" aria-labelledby="title desc">
  <title id="title">Emerald City Mortgage Advisors</title>
  <desc id="desc">Emerald City Mortgage Advisors logo with Seattle skyline and mountain mark.</desc>
  <rect width="680" height="280" rx="18" fill="#f9f5e9"/>
  <g fill="#176354">
    <path d="M106 145h468l-72-58-36 28-50-62-63 72-48-88-70 93-35-39-94 54Z"/>
    <path d="M334 19h12v35h-12z"/>
    <path d="M310 54h60l-16 12h-28z"/>
    <path d="M299 67h82l-20 13h-42z"/>
    <path d="M333 80h15v59h-15z"/>
    <path d="M325 139h31v8h-31z"/>
    <path d="M321 158h39v8h-39z"/>
    <path d="M316 177h49v8h-49z"/>
    <path d="M147 132h16v33h-16z"/>
    <path d="M170 118h18v47h-18z"/>
    <path d="M195 128h15v37h-15z"/>
    <path d="M221 106h22v59h-22z"/>
    <path d="M252 120h18v45h-18z"/>
    <path d="M410 116h18v49h-18z"/>
    <path d="M436 128h17v37h-17z"/>
    <path d="M463 104h22v61h-22z"/>
    <path d="M493 121h17v44h-17z"/>
    <path d="M521 136h16v29h-16z"/>
  </g>
  <path d="M68 174h544" stroke="#176354" stroke-width="6" stroke-linecap="round"/>
  <path d="M170 192h340" stroke="#176354" stroke-width="5" stroke-linecap="round" opacity=".82"/>
  <text x="340" y="239" fill="#176354" font-family="Arial, Helvetica, sans-serif" font-size="48" font-weight="800" letter-spacing="8" text-anchor="middle">EMERALD CITY</text>
  <text x="340" y="267" fill="#176354" font-family="Arial, Helvetica, sans-serif" font-size="21" font-weight="800" letter-spacing="10" text-anchor="middle">MORTGAGE ADVISORS</text>
</svg>
